<svg xmlns="http://www.w3.org/2000/svg" width="33.988" height="18.876" viewBox="0 0 33.988 18.876">
  <path id="_1d5f92556e087f24c998397cb4fcab75" data-name="1d5f92556e087f24c998397cb4fcab75" d="M4945.763,171.382a.724.724,0,0,0-.724.724v3.983a.724.724,0,1,0,1.448,0v-3.982A.725.725,0,0,0,4945.763,171.382Zm-8.712,2.332a.725.725,0,0,0-.618,1.086l1.992,3.45a.724.724,0,1,0,1.254-.724l-1.991-3.45a.724.724,0,0,0-.618-.362h-.019Zm17.42,0a.723.723,0,0,0-.632.362l-1.991,3.45a.724.724,0,1,0,1.254.724l1.991-3.45a.724.724,0,0,0-.622-1.086Zm-8.639,4.958a10.874,10.874,0,0,0-10.907,10.138h-5.431a.724.724,0,1,0,0,1.449h32.539a.724.724,0,1,0,0-1.449H4956.6A10.875,10.875,0,0,0,4945.832,178.671Zm-15.137,1.413a.724.724,0,0,0-.367,1.351l3.449,1.991a.724.724,0,0,0,.725-1.254l-3.45-1.992a.726.726,0,0,0-.357-.1Zm30.133,0a.722.722,0,0,0-.352.1l-3.45,1.992a.724.724,0,1,0,.725,1.254l3.449-1.991a.724.724,0,0,0-.352-1.351Zm-15,.035a9.4,9.4,0,0,1,9.327,8.69h-18.772A9.4,9.4,0,0,1,4945.822,180.12Z" transform="translate(-4928.769 -171.382)" fill="#0d141d"/>
</svg>
