<svg xmlns="http://www.w3.org/2000/svg" width="320.497" height="53.593" viewBox="0 0 320.497 53.593">
  <g id="Bank_of_Georgia_Group_PLC" data-name="Bank of Georgia Group PLC" transform="translate(-65.328 -174.799)">
    <path id="Path_2645" data-name="Path 2645" d="M128.5,174.8a12.5,12.5,0,0,1,5.489,1.277l.023.011.022.013c3.712,2.322,6.3,5.775,8.837,9.41a1.586,1.586,0,0,1,.012,1.942,56.64,56.64,0,0,1-5.728,7.844l-.024.026a3.047,3.047,0,0,1-2.173.919,2.97,2.97,0,0,1-1.563-.447c-.194-.1-.4-.186-.62-.28a10.7,10.7,0,0,1-1.043-.495L131.7,195l-.027-.021a.2.2,0,0,0-.066-.035l-.021.028a.878.878,0,0,1-.079.133l-.313.693-.028.039a6.044,6.044,0,0,0-.707,1.369,31.768,31.768,0,0,0-2.016,11.112l0,.041a5.164,5.164,0,0,0,.222,2.095,2.2,2.2,0,0,1-.275,2.7,3.036,3.036,0,0,0,.986-.976.761.761,0,0,1,.652-.432.909.909,0,0,1,.64.344l.029.029.4.568.022.1a3.682,3.682,0,0,1-.148,2.023l-.02.054-.032.048a4.025,4.025,0,0,1-2.47,1.757,8.778,8.778,0,0,1-2.412.35,7.978,7.978,0,0,1-1.856-.219c-.035-.008-.065-.013-.09-.017,0,.014,0,.029,0,.046l0,.048c-.209,2.175.271,3.655,1.557,4.8a2.607,2.607,0,0,1,.556,3.269,5.439,5.439,0,0,1-2.592,2.4,10.268,10.268,0,0,1-4.544,1.045,10.847,10.847,0,0,1-3.031-.436,7.166,7.166,0,0,1-3.149-1.749,6.928,6.928,0,0,1-1.868-3.1,11.908,11.908,0,0,1-.534-3.759v-.02a19.477,19.477,0,0,0-.309-4.648c-.607-2.621-2.438-4.536-4.557-4.767h-.006c-3.066-.371-6.053-.617-9.639-.9-.032,0-.064,0-.1,0a1.394,1.394,0,0,0-1.363,1.092l-.01.039a3.244,3.244,0,0,0-.055,1.62l0,.019c.26,1.441,0,2.259-1.031,2.964a4.64,4.64,0,0,0,1.143-.572,1.334,1.334,0,0,1,.761-.329.71.71,0,0,1,.653.437,1.872,1.872,0,0,1,.144.632,2.782,2.782,0,0,1-2.137,2.916l-.029.008a10.392,10.392,0,0,1-2.553.346,7.66,7.66,0,0,1-1.482-.142l-.025,0,.008.031,0,.016a5.02,5.02,0,0,0,1.155,2.276,3.44,3.44,0,0,1,.966,2.169l0,.025a3.807,3.807,0,0,1-2.519,3.693,8.257,8.257,0,0,1-3.744.89,8.527,8.527,0,0,1-4.153-1.088,8.65,8.65,0,0,1-2.809-2.522c-.308.351-.621.7-.933,1.011l-.02.02-.022.017a10.849,10.849,0,0,1-5.769,2.366l-.049,0a10.792,10.792,0,0,1-4.832-1.15,4.7,4.7,0,0,1-1.489-1.141,1.389,1.389,0,0,1,1.007-2.339,1.215,1.215,0,0,1,.837.329,4.348,4.348,0,0,0,2.543.814,4.5,4.5,0,0,0,.473-.025l.032,0h.032a5.354,5.354,0,0,0,5.185-5.006,14.407,14.407,0,0,0-.989-5.79l-.01-.027c-.313-.947-.661-1.9-1-2.812-.554-1.511-1.128-3.074-1.57-4.695l0-.006a14.7,14.7,0,0,1-.334-6.6,11.23,11.23,0,0,1,3.218-5.81l.028-.026a12.43,12.43,0,0,1,8.015-3c.323,0,.651.013.974.039,2.1.05,4.254.212,6.338.37.654.049,1.33.1,1.99.147.828.064,1.668.1,2.5.1a34.338,34.338,0,0,0,7.266-.793,49.233,49.233,0,0,0,15.447-7.148l.006,0a.707.707,0,0,0,.252-.258l.009-.024a11.547,11.547,0,0,1,6.691-6.672l.021-.007A12.537,12.537,0,0,1,128.5,174.8Zm5.025,2.163a11.465,11.465,0,0,0-8.551-.61,10.547,10.547,0,0,0-6.093,6.083,1.667,1.667,0,0,1-.636.758,50.231,50.231,0,0,1-15.767,7.293l-.023.005a35.341,35.341,0,0,1-7.49.819c-.858,0-1.724-.033-2.574-.1-.659-.046-1.337-.1-1.992-.147-2.076-.157-4.223-.319-6.3-.368l-.029,0c-.3-.025-.606-.037-.907-.037A11.428,11.428,0,0,0,75.81,193.4c-2.98,2.955-3.832,6.7-2.606,11.434.431,1.578,1,3.119,1.543,4.61.337.92.686,1.87,1,2.828A15.4,15.4,0,0,1,76.8,218.46v.016a6.439,6.439,0,0,1-1.95,4.19,5.925,5.925,0,0,1-4.136,1.762h-.088c-.181.018-.365.027-.547.027a5.352,5.352,0,0,1-3.163-1.029l-.031-.023-.027-.027a.213.213,0,0,0-.159-.064.414.414,0,0,0-.283.129.407.407,0,0,0,0,.521l.026.028a3.663,3.663,0,0,0,1.188.909,9.788,9.788,0,0,0,4.358,1.043,9.851,9.851,0,0,0,5.192-2.129c.43-.435.872-.945,1.3-1.438l.451-.519.356.588a7.62,7.62,0,0,0,6.479,3.692,7.267,7.267,0,0,0,3.3-.785l.009,0a2.825,2.825,0,0,0,1.957-2.741,2.461,2.461,0,0,0-.688-1.55l-.016-.017a6.035,6.035,0,0,1-1.4-2.738,1.1,1.1,0,0,1,.1-.962.931.931,0,0,1,.757-.307,2.6,2.6,0,0,1,.261.014l.049.007a6.648,6.648,0,0,0,1.31.127,9.393,9.393,0,0,0,2.293-.312,1.811,1.811,0,0,0,1.433-1.844l0-.017V215a5.61,5.61,0,0,1-3.183.986,5.8,5.8,0,0,1-1.293-.147l-1.837-.421,1.8-.545a8.757,8.757,0,0,0,1.756-.667l.011-.006c1.116-.589,1.31-.987,1.087-2.233a4.247,4.247,0,0,1,.07-2.092,2.4,2.4,0,0,1,2.336-1.864c.055,0,.111,0,.166.006h.006c3.6.284,6.6.532,9.68.9,2.542.278,4.721,2.506,5.422,5.544l0,.015a20.426,20.426,0,0,1,.33,4.88,10.912,10.912,0,0,0,.487,3.445l.006.021a5.976,5.976,0,0,0,4.316,4.167l.015,0a9.847,9.847,0,0,0,2.758.4,9.276,9.276,0,0,0,4.113-.948l.018-.008a4.435,4.435,0,0,0,2.128-1.969l.015-.027a1.587,1.587,0,0,0-.343-2l-.01-.009c-1.527-1.354-2.13-3.141-1.9-5.623.01-.9.57-1.03.9-1.03a1.875,1.875,0,0,1,.409.051l.007,0a6.977,6.977,0,0,0,1.626.193,7.786,7.786,0,0,0,2.151-.316l.033-.008a3.017,3.017,0,0,0,1.832-1.287,2.719,2.719,0,0,0,.108-1.312l-.1-.147a4.325,4.325,0,0,1-3.8,1.7c-.225,0-.466-.009-.716-.027l-.136-.968a14.529,14.529,0,0,0,1.661-.744c1-.584,1.141-1.03.678-2.065l-.014-.034a6.148,6.148,0,0,1-.286-2.512,32.768,32.768,0,0,1,2.079-11.44,7,7,0,0,1,.8-1.558l.338-.749.039-.039a.828.828,0,0,1,.126-.19.978.978,0,0,1,.771-.379,1.118,1.118,0,0,1,.649.216,10.184,10.184,0,0,0,.923.434c.23.1.469.2.7.315l.041.023a1.972,1.972,0,0,0,1.051.307,2,2,0,0,0,.289-.021l-.057-.008h-.014a.88.88,0,0,1-.884-.951,1,1,0,0,1,.948-1.016h.05l.049.01a1.041,1.041,0,0,1,.913,1.006v.126l-.015.059a1.091,1.091,0,0,1-.32.551,2.153,2.153,0,0,0,.491-.367q.469-.544.915-1.086a1.046,1.046,0,0,1-.612.185h-.064a.932.932,0,0,1-.884-.951v-.064a.94.94,0,0,1,.948-.951,1.04,1.04,0,0,1,1,.831l.015.059v.251l-.015.059a1.111,1.111,0,0,1-.067.193,53.794,53.794,0,0,0,4.4-6.246l.019-.032.024-.029a.578.578,0,0,0,0-.717l-.025-.032C139.587,182.554,137.072,179.188,133.526,176.963Zm-6.512-1.014h0a.91.91,0,0,1,.15.012h.1l.077.026a.95.95,0,0,1,.661,1.04v.014a.939.939,0,0,1-.047.3,6.828,6.828,0,0,1,1.456-.343,7.316,7.316,0,0,1,7.043,2.681,1.412,1.412,0,0,1,.136.182c.013.019.031.047.041.06a.9.9,0,0,1,.2.668v1.389l-.429-.519a3.657,3.657,0,0,1,.233,2.168l0-.01.956.257a4.031,4.031,0,0,1-.644,1.746,5.271,5.271,0,0,1-4.48,2.883,7.272,7.272,0,0,1-.962.064,7.5,7.5,0,0,1-3.4-.826l-.025-.013a2.323,2.323,0,0,1-.725-.559,1.056,1.056,0,0,1-.039-1.212,1.084,1.084,0,0,1,.974-.638,1.911,1.911,0,0,1,.929.317l.022.014a5.631,5.631,0,0,0,2.7.888l.042,0a4.268,4.268,0,0,0,.628.047,4.185,4.185,0,0,0,2-.509,3.343,3.343,0,0,1-.736.22,5.054,5.054,0,0,1-1.338.184,4.7,4.7,0,0,1-2.323-.612,3.68,3.68,0,0,1-2.125-4.016l.01-.046a3.858,3.858,0,0,1,3.6-2.82h.39a4.152,4.152,0,0,1,.5,0,5.334,5.334,0,0,0-1.326-.033h-.008a5.473,5.473,0,0,0-3.612,1.871,3.733,3.733,0,0,1-.427.563l-.05.05a1.433,1.433,0,0,1-1.079.486,1.382,1.382,0,0,1-.989-.408l-.064-.064a1.511,1.511,0,0,1-.011-2.112,7.347,7.347,0,0,1,1.759-1.456.984.984,0,0,1-.678-.976v-.065a.885.885,0,0,1,.279-.646A.914.914,0,0,1,127.014,175.948Zm4.5,1.989a6.328,6.328,0,0,0-1.943.048l-.029,0a5.973,5.973,0,0,0-3.782,2.028l-.019.02a.515.515,0,0,0,0,.714l.064.064a.386.386,0,0,0,.279.112.427.427,0,0,0,.324-.143l.03-.034.064-.064a3.336,3.336,0,0,0,.322-.44l.019-.029.023-.026a6.473,6.473,0,0,1,4.3-2.231C131.28,177.95,131.4,177.942,131.514,177.937Zm4.134,5.513a2.538,2.538,0,0,0-1.11-2.69l-.024-.014-.022-.017a3.558,3.558,0,0,0-2.353-.738h-.406a2.863,2.863,0,0,0-2.658,2.059,2.681,2.681,0,0,0,1.565,2.915l.025.011.023.013a3.716,3.716,0,0,0,1.853.495,4.06,4.06,0,0,0,1.093-.154l.026-.007.026,0A2.445,2.445,0,0,0,135.648,183.45Zm-6.939,3.047a1.294,1.294,0,0,0-.419-.177h-.008a.339.339,0,0,0-.091.12.355.355,0,0,0-.046.117,1.607,1.607,0,0,0,.421.3,6.454,6.454,0,0,0,3.406.7l-.113-.015A6.633,6.633,0,0,1,128.709,186.5Zm-4.283-9.44a1.054,1.054,0,0,1,1.012,1.016.992.992,0,0,1-1.012,1.08H124.3l-.06-.015a1.124,1.124,0,0,1-.826-1.065v-.064A1,1,0,0,1,124.426,177.057Zm-1.984,2.386h.128a1.164,1.164,0,0,1,1.14,1.209v.035l0,.035a1.179,1.179,0,0,1-1.263,1.139h-.192a.986.986,0,0,1-.756-.376,1.145,1.145,0,0,1-.256-.874v-.137l.01-.048A1.192,1.192,0,0,1,122.443,179.443Zm.266,1.182c-.005-.057-.029-.182-.138-.182h-.128a.2.2,0,0,0-.2.141v.117l-.01.048a.17.17,0,0,0,.048.112h.166C122.621,180.862,122.671,180.862,122.709,180.625Zm-.54,1.785h.082a1.4,1.4,0,0,1,1.4,1.338v.229l0,.035a1.285,1.285,0,0,1-1.422,1.139h-.132l-.035-.005a1.3,1.3,0,0,1-1.128-1.468l0-.011a1.71,1.71,0,0,1,1.166-1.231Zm.478,1.49v-.151a.414.414,0,0,0-.324-.33.708.708,0,0,0-.41.406.3.3,0,0,0,.253.327h.121l.035.005A.3.3,0,0,0,122.646,183.9Zm3.06-1.425h.128a1.263,1.263,0,0,1,.948.448,1.3,1.3,0,0,1,.32.991,1.325,1.325,0,0,1-1.3,1.245,1.2,1.2,0,0,1-.13-.007h-.033a1.291,1.291,0,0,1-1.268-1.338v-.031l0-.031A1.3,1.3,0,0,1,125.706,182.474Zm.1,1.684a.318.318,0,0,0,.3-.281v-.035l0-.035a.3.3,0,0,0-.08-.229.271.271,0,0,0-.193-.1h-.128c-.131,0-.277,0-.331.366a.3.3,0,0,0,.267.311h.1l.035.005Zm-6.824-.08h0a.978.978,0,0,1,.767.374,1.85,1.85,0,0,1,.326.493,16.284,16.284,0,0,0,8.984,8.065l1.387.381-.061.977a3.93,3.93,0,0,1-.563.044,2.606,2.606,0,0,1-1.008-.191,16.7,16.7,0,0,1-6.093-2.848,17.206,17.206,0,0,1-4.541-5.037,2.447,2.447,0,0,1-.382-.791,1.149,1.149,0,0,1,.538-1.254A1.117,1.117,0,0,1,118.981,184.078Zm3.074,5.462a17.34,17.34,0,0,1-2.876-4.15.894.894,0,0,0-.163-.257l-.025-.025-.021-.028a.2.2,0,0,0-.066.035l-.036.027-.04.02a.161.161,0,0,0-.06.143,1.579,1.579,0,0,0,.252.489l.013.02A16.435,16.435,0,0,0,122.055,189.539Zm1.76-3.977h0a1.2,1.2,0,0,1,.134.008,1.356,1.356,0,0,1,1.29,1.211.549.549,0,0,1,.056.382,1.283,1.283,0,0,1-1.413,1.084h-.1a1.263,1.263,0,0,1-.948-.448,1.3,1.3,0,0,1-.32-.991,1.28,1.28,0,0,1,.4-.871A1.312,1.312,0,0,1,123.815,185.563Zm.463,1.526-.032-.064v-.117a.353.353,0,0,0-.332-.338h-.036l-.035-.005-.028,0h0a.309.309,0,0,0-.205.093.273.273,0,0,0-.092.188v.035l0,.035a.3.3,0,0,0,.08.229.271.271,0,0,0,.193.1h.164l.035.005A.278.278,0,0,0,124.278,187.089Zm-7.851-1.068a1.357,1.357,0,0,1,1.332,1.4v.106l-.007.041a1.341,1.341,0,0,1-1.325,1.128,1.34,1.34,0,1,1,0-2.677Zm.332,1.418v-.015c0-.167-.1-.4-.332-.4a.343.343,0,1,0,0,.677A.334.334,0,0,0,116.759,187.439Zm20.492-.847h0a1.028,1.028,0,0,1,.143.01h.129l.041.007a1.236,1.236,0,0,1,.813.5,1.039,1.039,0,0,1,.18.739v.024a1.1,1.1,0,0,1-1.14,1.145h-.242l-.049-.01a1.2,1.2,0,0,1-.977-1.2v-.193a.992.992,0,0,1,.37-.754A1.161,1.161,0,0,1,137.251,186.592Zm.178,1.01H137.3l-.049-.01a.17.17,0,0,0-.105.049v.171a.2.2,0,0,0,.138.209h.13c.095,0,.14-.022.14-.145v-.114l.01-.048a.056.056,0,0,0-.013-.032A.218.218,0,0,0,137.429,187.6Zm-24.532-.3a1.163,1.163,0,0,1,1.128.872,18.334,18.334,0,0,0,1.852,3.414l.005.007a18.391,18.391,0,0,0,9.259,7.151l2.47.574-.113.987a6.873,6.873,0,0,1-2.637-.469,12.225,12.225,0,0,1-3.275-1.129,20.593,20.593,0,0,1-9.364-8.9,2.553,2.553,0,0,1-.189-.382,1.674,1.674,0,0,0-.117-.242l-.025-.038-.018-.042c-.488-1.147.273-1.581.518-1.687l.095-.041h.018a.682.682,0,0,1,.222-.062A1.211,1.211,0,0,1,112.9,187.3Zm2.158,4.856a19.375,19.375,0,0,1-1.969-3.638l-.019-.046-.01-.049a.165.165,0,0,0-.172-.123.764.764,0,0,1-.14.053.125.125,0,0,0-.033.025s-.025.072.065.3a2.691,2.691,0,0,1,.175.358,1.675,1.675,0,0,0,.117.242l.023.039a20.027,20.027,0,0,0,2.631,3.773Q115.377,192.634,115.055,192.158Zm11.867-3.879a1.338,1.338,0,0,1,0,2.677h-.128a1.278,1.278,0,0,1-1.2-1.338A1.353,1.353,0,0,1,126.922,188.279Zm0,1.677a.338.338,0,1,0-.332-.338c0,.193.124.338.2.338Zm7.743-1.032h.064a1.227,1.227,0,0,1,1.2,1.274,1.339,1.339,0,0,1-1.268,1.338,1.288,1.288,0,0,1-1.268-1.274v-.129A1.272,1.272,0,0,1,134.665,188.923Zm0,1.612a.356.356,0,0,0,.268-.338c0-.159-.086-.274-.2-.274h-.064c-.129,0-.268.123-.268.209v.129A.282.282,0,0,0,134.665,190.536Zm-3.875-1.039h0a1.2,1.2,0,0,1,.13.007h.033a1.243,1.243,0,0,1,1.268,1.274c0,1.309-.914,1.411-1.194,1.411-.053,0-.108,0-.164-.008h-.1a1.263,1.263,0,0,1-.948-.448,1.3,1.3,0,0,1-.32-.991,1.28,1.28,0,0,1,.4-.871A1.312,1.312,0,0,1,130.791,189.5Zm.237,1.692c.067,0,.109-.01.124-.031a.734.734,0,0,0,.07-.38.244.244,0,0,0-.268-.274h-.1l-.035-.005a.3.3,0,0,0-.233.091.273.273,0,0,0-.092.188v.035l0,.035a.3.3,0,0,0,.08.229.271.271,0,0,0,.193.1h.156l.028,0A.75.75,0,0,0,131.028,191.189Zm-20.936-1.556h.164l.035.005a1.3,1.3,0,0,1,1.133,1.429v.033a1.29,1.29,0,0,1-1.332,1.274h-.128a1.205,1.205,0,0,1-.9-.429,1.235,1.235,0,0,1-.3-.94v-.134l0-.035A1.341,1.341,0,0,1,110.092,189.633Zm.085,1h-.085a.342.342,0,0,0-.332.314v.124l0,.035a.235.235,0,0,0,.061.184.225.225,0,0,0,.148.084h.128a.3.3,0,0,0,.332-.274V191l0-.035A.3.3,0,0,0,110.177,190.633Zm8.938-.678a1.344,1.344,0,0,1,1.4,1.245,1.3,1.3,0,0,1-1.276,1.493l-.028,0h-.028a1.323,1.323,0,0,1-1.4-1.338A1.37,1.37,0,0,1,119.115,189.955Zm.038,1.741c.371-.049.384-.209.361-.412l0-.027v-.027c0-.138-.2-.274-.4-.274a.372.372,0,0,0-.332.4C118.783,191.636,119,191.691,119.153,191.7Zm-12.993-1.224c.716,0,.993.662,1.158,1.058l.035.084.012.032a23.021,23.021,0,0,0,6.7,9.844,20.871,20.871,0,0,0,10.309,4.659h.009l.384.064-.1.993a17.659,17.659,0,0,1-6.645-1.459,21.982,21.982,0,0,1-7.63-5.235,28.646,28.646,0,0,1-5.078-7.66.886.886,0,0,1-.117-.227.8.8,0,0,0-.033-.078l-.012-.023-.009-.024a2.462,2.462,0,0,1-.215-.934,1.085,1.085,0,0,1,.753-.994A1.281,1.281,0,0,1,106.159,190.472Zm.266,1.517-.031-.074a1.545,1.545,0,0,0-.236-.443.314.314,0,0,0-.1.027.288.288,0,0,0-.123.073,1.54,1.54,0,0,0,.141.556c.027.057.045.1.058.138l.026.026.037.079a30.6,30.6,0,0,0,2.975,5.094A23.822,23.822,0,0,1,106.425,191.989Zm-3.885-.164a1.257,1.257,0,0,1,1.4,1.338v.193a1.2,1.2,0,0,1-1.218,1.218,1.3,1.3,0,0,1-.145-.008h-.1a1.278,1.278,0,0,1-1.2-1.338v-.064A1.291,1.291,0,0,1,102.541,191.826Zm.178,1.75a.209.209,0,0,0,.218-.218v-.193c0-.222-.018-.338-.4-.338-.174,0-.268.174-.268.338v.064c0,.193.124.338.2.338h.164l.035.005A.3.3,0,0,0,102.718,193.575Zm-19.332-1.369c1.908,0,3.824.142,5.676.278,1.3.1,2.637.195,3.961.244h.019c.787.059,1.558.089,2.293.089a25.274,25.274,0,0,0,2.778-.149,1.362,1.362,0,0,1,.258-.027.925.925,0,0,1,.869.752l.008.026c1.436,5.308,4.89,9.285,7.74,12.157a44.444,44.444,0,0,0,4.958,4.068q.041,0,.082,0c.586,0,.773.565.844.778l.339,1.024-1.063-.428a1.764,1.764,0,0,1-.586-.325q-.052,0-.1,0a1.162,1.162,0,0,1-.745-.3c-.024-.018-.046-.036-.062-.047a86.382,86.382,0,0,1-8.869-6.413c-.406-.316-.817-.64-1.215-.953a45.5,45.5,0,0,0-7.465-5.117,18.159,18.159,0,0,0-8.329-2.325c-.4,0-.8.018-1.192.054l-.046,0a3.281,3.281,0,0,0-.71.049l-.041.008a6.8,6.8,0,0,0-5.539,7.812v.009c.022.158.054.331.088.514.06.325.128.694.17,1.119l.134,1.353-.979-.944a7.727,7.727,0,0,1-2.328-5.729v-.014a7.926,7.926,0,0,1,2.54-5.46,8.521,8.521,0,0,1,5.826-2.1C82.923,192.208,83.155,192.206,83.387,192.206Zm9.591,1.521c-1.34-.05-2.686-.15-3.988-.246-1.835-.135-3.732-.276-5.6-.276-.228,0-.455,0-.674.006H82.7c-4.165,0-7.126,2.659-7.372,6.617a6.686,6.686,0,0,0,.885,3.5,7.8,7.8,0,0,1,6.386-8.657,3.992,3.992,0,0,1,.91-.074c.417-.037.84-.056,1.26-.056a19.091,19.091,0,0,1,8.779,2.432,46.247,46.247,0,0,1,7.634,5.225c.4.314.81.638,1.216.954l.011.009q1.69,1.394,3.457,2.7c-2.848-2.922-6.151-6.9-7.582-12.17l-.014-.039-.028,0a26.255,26.255,0,0,1-2.909.158C94.579,193.818,93.786,193.788,92.978,193.728Zm30.133-.684h0a1.2,1.2,0,0,1,.13.007h.139l.041.007a1.323,1.323,0,0,1,1.121,1.267,1.258,1.258,0,0,1-1.332,1.4h-.128a1.263,1.263,0,0,1-.948-.448,1.3,1.3,0,0,1-.32-.991,1.279,1.279,0,0,1,.4-.871A1.312,1.312,0,0,1,123.111,193.044Zm.176,1.007h-.113l-.035-.005a.3.3,0,0,0-.233.091.273.273,0,0,0-.092.188v.035l0,.035a.3.3,0,0,0,.08.229.271.271,0,0,0,.193.1h.128c.218,0,.332-.018.332-.4A.324.324,0,0,0,123.288,194.051Zm-10.828-.291h.228l.035.005a1.3,1.3,0,0,1,1.132,1.432,1.323,1.323,0,0,1-1.4,1.3H112.4a1.29,1.29,0,0,1-.974-.445,1.213,1.213,0,0,1-.294-.924V195l0-.035A1.341,1.341,0,0,1,112.46,193.76Zm.149,1h-.149a.342.342,0,0,0-.332.314v.124l0,.035a.209.209,0,0,0,.054.168.294.294,0,0,0,.219.1h.064c.148,0,.4-.044.4-.338v-.035l0-.035A.3.3,0,0,0,112.608,194.76Zm14.825.419a1.444,1.444,0,0,1,1.457,1.418l0,.049v.164l0,.035a1.429,1.429,0,0,1-1.356,1.211,1.2,1.2,0,0,1-.17-.012,1.417,1.417,0,0,1-1.2-1.465,1.292,1.292,0,0,1,.317-.971A1.273,1.273,0,0,1,127.434,195.179Zm.46,1.494c-.058-.494-.349-.494-.46-.494a.272.272,0,0,0-.2.092.3.3,0,0,0-.068.249l.008.066-.009.066a.42.42,0,0,0,.344.4l.028,0a.429.429,0,0,0,.361-.324Zm-23.305-.462h.036l.035.005a1.4,1.4,0,0,1,1.2,1.4v.035l0,.035a1.389,1.389,0,0,1-1.019,1.155v.14l-.583-.1a1.285,1.285,0,0,1-1.057-1.366v-.065l0-.035A1.392,1.392,0,0,1,104.589,196.211Zm.266,1.367a.332.332,0,1,0-.662-.051v.063l-.007.041a.281.281,0,0,0,.2.257h.074A.4.4,0,0,0,104.855,197.578Zm10.946.108a1.463,1.463,0,0,1,1.442,1.285l0,.031v.06a1.369,1.369,0,0,1-1.332,1.374h-.228l-.035-.005A1.3,1.3,0,0,1,114.519,199v-.133l0-.035A1.3,1.3,0,0,1,115.8,197.686Zm.445,1.375c-.054-.366-.2-.366-.331-.366h-.036l-.035-.005a.3.3,0,0,0-.325.257v.122l0,.035a.3.3,0,0,0,.252.333h.149A.366.366,0,0,0,116.246,199.061Zm-9.1,1.213h.228l.035.005a1.3,1.3,0,0,1,1.133,1.429v.033a1.29,1.29,0,0,1-1.332,1.274h-.064a1.306,1.306,0,0,1-1.332-1.338v-.129A1.29,1.29,0,0,1,107.148,200.274Zm.149,1h-.149a.3.3,0,0,0-.332.274v.129a.316.316,0,0,0,.332.338h.064a.3.3,0,0,0,.332-.274v-.1l0-.035A.3.3,0,0,0,107.3,201.274Zm13.034-.807h.064a1.288,1.288,0,0,1,1.268,1.3,1.415,1.415,0,0,1-1.2,1.5l-.035.005h-.036a1.37,1.37,0,0,1-1.4-1.338v-.193A1.29,1.29,0,0,1,120.331,200.467Zm.026,1.8a.42.42,0,0,0,.311-.4l0-.035v-.035c0-.164-.094-.338-.268-.338h-.064a.3.3,0,0,0-.332.274v.193A.364.364,0,0,0,120.356,202.272Zm4.966-.128a1.355,1.355,0,0,1,1.321,1.172.772.772,0,0,1,.075.36,1.188,1.188,0,0,1-1.217,1.153,1.307,1.307,0,0,1-.146-.008h-.132l-.035-.005a1.34,1.34,0,0,1,.135-2.672Zm.376,1.589-.044-.045v-.206a.332.332,0,1,0-.664,0,.342.342,0,0,0,.309.338h.122l.035.005a.3.3,0,0,0,.043,0A.235.235,0,0,0,125.7,203.733Zm-15.209-.179h0a1.46,1.46,0,0,1,1.446,1.347v.027l0,.027c-.129,1.166-.92,1.292-1.254,1.292-.053,0-.109,0-.165-.008h-.208l-.041-.007a1.3,1.3,0,0,1-1.057-1.427v-.139l.007-.041A1.3,1.3,0,0,1,110.489,203.555Zm.446,1.324a.311.311,0,0,0-.331-.316h-.036l-.035-.005a.3.3,0,0,0-.325.2v.111l0,.035a.306.306,0,0,0,.2.333h.165l.028,0a.757.757,0,0,0,.084.005C110.787,205.248,110.889,205.248,110.935,204.879Zm-17.713-.059h0a8.341,8.341,0,0,1,2.492.379l.01,0c.027.009.054.016.081.023a1.02,1.02,0,0,1,.72.551l.358.722h-.806a13.316,13.316,0,0,0-3.806.618c-2.83,1.09-4.458,3.236-4.978,6.56a13.411,13.411,0,0,0,1.171,7.453l.014.029.01.031c.027.083.056.155.086.23s.069.175.106.285l.025.076v.081a.7.7,0,0,1-.209.481l-.325.328-.353-.3a9.894,9.894,0,0,1-3.3-5.5,10.064,10.064,0,0,1,5.136-11.263A8.468,8.468,0,0,1,93.222,204.819Zm.063,1a7.458,7.458,0,0,0-3.2.7A9.056,9.056,0,0,0,85.5,216.661a8.944,8.944,0,0,0,1.39,3.213,14.706,14.706,0,0,1-.583-6.326l0-.017a10.1,10.1,0,0,1,1.739-4.475,8.459,8.459,0,0,1,3.888-2.88l.034-.012Q92.637,205.961,93.285,205.819Zm21.67.581h.036l.035.005a1.323,1.323,0,0,1,.959.623.964.964,0,0,1,.109.721v.118a1.2,1.2,0,0,1-1.218,1.218,1.3,1.3,0,0,1-.145-.008h-.2l-.035-.005a1.3,1.3,0,0,1-1.128-1.468A1.429,1.429,0,0,1,114.955,206.4Zm.162,1.123a.335.335,0,0,0-.2-.123c-.5.011-.535.226-.552.344a.3.3,0,0,0,.252.333h.185l.035.005a.214.214,0,0,0,.261-.215v-.289Zm4.51.618a1.392,1.392,0,0,1,1.391,1.2v.009a1.373,1.373,0,0,1-1.193,1.524h-.009a1.4,1.4,0,0,1-.174.011,1.37,1.37,0,0,1-1.344-1.211l0-.035v-.035A1.316,1.316,0,0,1,119.627,208.142Zm.4,1.34a.4.4,0,0,0-.4-.34c-.128,0-.32,0-.331.428a.37.37,0,0,0,.392.318A.38.38,0,0,0,120.027,209.482Zm4.478-.574c.047,0,.1,0,.145.008h.138l.041.007a1.344,1.344,0,0,1,1.121,1.331v.229l0,.035a1.285,1.285,0,0,1-1.422,1.139h-.068l-.035-.005a1.3,1.3,0,0,1-1.133-1.429v-.1a1.207,1.207,0,0,1,1.218-1.218Zm.191,1.008h-.113l-.035-.005a.233.233,0,0,0-.2.057.214.214,0,0,0-.061.157v.164l0,.035a.3.3,0,0,0,.252.333h.057l.035.005a.3.3,0,0,0,.325-.257v-.151A.337.337,0,0,0,124.7,209.916Zm-2.893,3.728.946.26c-.015.2-.03.381-.044.554-.046.558-.082,1-.082,1.471v.019a12.273,12.273,0,0,0,.737,4.708,3.682,3.682,0,0,0,1.006,1.534,1.252,1.252,0,0,1,.54.89,1.441,1.441,0,0,1-.572,1.069l-.01.009a7.084,7.084,0,0,1-4.587,1.684c-.207.021-.431.031-.686.031-.222,0-.443-.007-.657-.015s-.418-.014-.623-.014H116.13l1.362-.915a9.1,9.1,0,0,1,1.353-.71,8.191,8.191,0,0,0,1.024-.521l.014-.009.146-.087a2.936,2.936,0,0,0,.853-.6,3.09,3.09,0,0,0-.137-1.065l-.008-.039A12.541,12.541,0,0,1,121.8,213.644Zm2.1,9.49a.8.8,0,0,0-.171-.172l-.017-.014A4.66,4.66,0,0,1,122.42,221a13.091,13.091,0,0,1-.78-3.726,11.466,11.466,0,0,0,.076,4.42l.009.041a2.783,2.783,0,0,1,.076,1.665c-.183.423-.566.65-1.26,1.063l-.139.082c-.158.1-.324.193-.493.278a5.95,5.95,0,0,0,3.72-1.384A2.116,2.116,0,0,0,123.9,223.134Z" transform="translate(0)" fill="#fff"/>
    <path id="Path_2648" data-name="Path 2648" d="M213.971,198.419l1.152.768a4.278,4.278,0,0,1,.384,6.079,4.191,4.191,0,0,1-1.152.96,7.22,7.22,0,0,1-3.648.768c-2.368.064-4.8,0-7.167,0-.512,0-.64-.128-.64-.7V190.8c0-.384,0-.7.576-.7,2.56.064,5.119,0,7.743.064a5.868,5.868,0,0,1,3.776,1.408A4.322,4.322,0,0,1,213.971,198.419Zm-5.183,5.631h1.984a1.089,1.089,0,0,0,.448-.064c1.152-.192,1.856-.832,1.856-1.92a1.811,1.811,0,0,0-1.792-1.92c-1.472-.128-3.008-.128-4.479-.128-.384,0-.512.192-.448.512v2.944c0,.512.192.576.576.576Zm-.064-6.975h0l2.048-.064a1.186,1.186,0,0,0,.448-.128,1.805,1.805,0,0,0,1.472-2.048c0-.128-.064-.192-.064-.32a1.869,1.869,0,0,0-1.92-1.344c-1.28-.064-2.624,0-3.9-.064-.384,0-.448.128-.448.448V196.5c0,.384.192.448.512.448A8.753,8.753,0,0,0,208.723,197.075Z" transform="translate(-48.642 -5.22)" fill="#fff"/>
    <path id="Path_2649" data-name="Path 2649" d="M267.647,201.354V191.115c0-.64.192-.9.832-.832a9.622,9.622,0,0,0,1.92,0c.64-.064.7.192.7.768v13.886c0,.7.32,1.6-.128,2.048s-1.408.064-2.112.192a1.628,1.628,0,0,1-1.536-.7c-2.432-3.264-4.927-6.463-7.359-9.727-.128-.192-.256-.32-.384-.512-.256.256-.128.512-.128.768v9.471c0,.576-.128.832-.7.768a10.273,10.273,0,0,0-1.984,0c-.576.064-.768-.128-.768-.768V190.987c0-.512.128-.7.64-.64h.064c1.792-.384,2.944.448,3.968,1.92,1.984,2.88,4.224,5.631,6.335,8.447A2.012,2.012,0,0,1,267.647,201.354Z" transform="translate(-67.48 -5.274)" fill="#fff"/>
    <path id="Path_2650" data-name="Path 2650" d="M439,198.5c0-5.183,3.584-8.7,8.895-8.7a8.435,8.435,0,0,1,8.767,8.767c0,5.119-3.712,8.7-8.895,8.7A8.4,8.4,0,0,1,439,198.5Zm14.142.064a5.315,5.315,0,1,0-10.623,0,5.126,5.126,0,0,0,5.247,5.439,5.227,5.227,0,0,0,5.375-5.439Z" transform="translate(-132.397 -5.113)" fill="#fff"/>
    <path id="Path_2651" data-name="Path 2651" d="M328.557,189.9a8.364,8.364,0,0,1,8.767,8.767,8.866,8.866,0,1,1-8.767-8.767Zm5.247,8.639a5.285,5.285,0,1,0-10.559.064,5.126,5.126,0,0,0,4.991,5.375h.32c3.072.064,5.247-2.176,5.247-5.439Z" transform="translate(-90.034 -5.148)" fill="#fff"/>
    <path id="Path_2652" data-name="Path 2652" d="M484.61,207.121h-3.84c-.384,0-.448-.32-.64-.512-1.344-1.856-2.752-3.712-4.1-5.567-.064-.128-.192-.256-.256-.384-.256-.384-.64-.256-.96-.192s-.192.384-.192.576v5.439c0,.512-.128.7-.64.64-.7-.064-1.408,0-2.112,0-.384,0-.576-.064-.576-.512V190.8c0-.384.064-.512.512-.512,2.624,0,5.247-.064,7.871.064,2.048.128,3.9.96,4.607,3.072,1.024,3.136-.32,6.143-3.9,6.783-.832.128-.832.128-.32.832C481.475,203.09,483.011,205.009,484.61,207.121ZM477,197.394h0c.7.064,1.344.064,2.048.064a1.969,1.969,0,0,0,2.048-1.984c.064-1.152-.64-1.92-1.984-1.984-.96-.064-1.92-.064-2.816-.064-1.664,0-1.664,0-1.664,1.664,0,.768-.32,1.792.192,2.24S476.227,197.394,477,197.394Z" transform="translate(-143.523 -5.282)" fill="#fff"/>
    <path id="Path_2653" data-name="Path 2653" d="M508.568,197.632H511.9c.256,0,.512-.064.576.384.256,3.712-1.472,7.423-5.247,8.831a8.874,8.874,0,0,1-10.943-4.224,8.974,8.974,0,0,1,3.328-11.583,9.621,9.621,0,0,1,10.559.9c.512.448.512.7,0,1.088a12.084,12.084,0,0,0-1.28,1.28c-.384.512-.7.576-1.216.064a5.5,5.5,0,0,0-6.975,0,6.052,6.052,0,0,0-.96,7.423,5.374,5.374,0,0,0,6.719,1.984,4.005,4.005,0,0,0,2.24-2.624c.128-.448.128-.64-.448-.64-1.024.064-2.048,0-3.072,0-.512,0-.64-.128-.64-.64.064-.7-.256-1.6.128-2.048s1.344-.128,2.048-.128A9.159,9.159,0,0,1,508.568,197.632Z" transform="translate(-152.186 -5.136)" fill="#fff"/>
    <path id="Path_2654" data-name="Path 2654" d="M397.318,197.587h3.328c.32,0,.512.064.576.448.256,4.543-2.368,8.191-6.335,9.087a8.705,8.705,0,0,1-10.495-6.655c-1.024-5.247,2.112-9.855,7.231-10.559a8.771,8.771,0,0,1,7.359,1.92c.448.384.576.7,0,1.088l-.384.384a6.3,6.3,0,0,1-1.344,1.28c-.64.256-.96-.576-1.472-.9a5.3,5.3,0,0,0-7.231,1.856,5.1,5.1,0,0,0-.7,2.368c-.256,3.136,1.28,5.5,4.031,6.015,2.56.512,4.863-.32,5.7-2.752.192-.576.128-.832-.576-.832-.96.064-1.92,0-2.816,0-.448,0-.7-.064-.64-.576a7.8,7.8,0,0,0,0-1.728c0-.448.128-.512.512-.512C395.078,197.587,396.166,197.587,397.318,197.587Z" transform="translate(-112.958 -5.093)" fill="#fff"/>
    <path id="Path_2655" data-name="Path 2655" d="M415.4,198.647V190.9c0-.512.128-.7.64-.7H427.3c.576,0,.7.192.64.7-.064.768.32,1.792-.128,2.3s-1.472.128-2.24.192c-1.984,0-3.9.064-5.887,0-.7,0-.9.256-.832.9a10.267,10.267,0,0,1,0,1.984c-.064.576.128.832.768.832,2.368-.064,4.8,0,7.167,0,.64,0,.832.192.768.768a5.66,5.66,0,0,0,0,1.472c.128.768-.256.9-.96.9-2.3-.064-4.607,0-6.911,0-.7,0-.96.128-.9.9a13.846,13.846,0,0,1,0,2.3c0,.512.192.64.7.64H427.3c.576,0,.832.128.768.7a7.8,7.8,0,0,0,0,1.728c.064.576-.128.7-.7.7H419.24c-1.024,0-2.048-.064-3.072,0-.64.064-.7-.192-.7-.768C415.4,203.83,415.4,201.207,415.4,198.647Z" transform="translate(-124.055 -5.255)" fill="#fff"/>
    <path id="Path_2656" data-name="Path 2656" d="M543.908,190.359c2.112,0,2.112,0,2.88,1.984,1.856,4.671,3.648,9.343,5.5,14.014.256.64.192.9-.576.832a10.267,10.267,0,0,0-1.984,0c-.7.064-.96-.256-1.152-.832-.256-.832-.64-1.664-.9-2.5a.661.661,0,0,0-.768-.576h-6.079a.6.6,0,0,0-.7.512h0c-.32.96-.7,1.856-1.024,2.816a.755.755,0,0,1-.9.576,13.846,13.846,0,0,0-2.3,0c-.576,0-.576-.128-.448-.64,1.408-3.52,2.752-7.039,4.1-10.559.64-1.664,1.344-3.328,1.92-4.991.192-.512.448-.768,1.024-.7A10.847,10.847,0,0,0,543.908,190.359Zm0,3.328-2.24,5.887c-.128.384-.064.512.384.512h3.712c.448,0,.512-.128.384-.576-.768-1.856-1.472-3.712-2.24-5.823Z" transform="translate(-166.601 -5.285)" fill="#fff"/>
    <path id="Path_2657" data-name="Path 2657" d="M241.355,207.2c-1.792,0-1.792,0-2.432-1.664-.256-.7-.384-1.728-.9-2.112s-1.536-.064-2.368-.064H231.5a.634.634,0,0,0-.7.512c-.32.96-.7,1.856-1.024,2.816a.723.723,0,0,1-.832.64h-.064a11.638,11.638,0,0,0-2.112,0c-.576,0-.7-.128-.512-.7,1.088-2.816,2.176-5.631,3.264-8.383.9-2.368,1.856-4.671,2.688-7.039a.887.887,0,0,1,1.024-.7,20.665,20.665,0,0,0,2.816,0,.776.776,0,0,1,.832.512c2.048,5.247,4.032,10.431,6.079,15.678.192.512.128.7-.448.64A3.543,3.543,0,0,0,241.355,207.2Zm-6.719-13.182h-.192c-.7,1.92-1.472,3.84-2.176,5.759-.128.256,0,.384.256.384h4.415Z" transform="translate(-56.89 -5.356)" fill="#fff"/>
    <path id="Path_2658" data-name="Path 2658" d="M300.218,190.4l-4.991,5.759c-.512.576-1.024,1.216-1.536,1.792-.448.448-.448.7,0,1.216,2.24,2.5,4.415,4.991,6.591,7.487.128.128.192.256.448.576h-4.16c-.32,0-.448-.32-.64-.512-1.728-1.984-3.392-3.9-5.055-5.887-.512-.64-1.152-.448-1.728-.384-.384,0-.256.384-.256.64v5.5c0,.512-.128.768-.7.7a11.638,11.638,0,0,0-2.112,0c-.384,0-.576-.128-.576-.512V190.971c0-.384.128-.512.512-.512h2.3c.448,0,.576.128.576.576v5.183c0,.32-.256.9.256.96a1.562,1.562,0,0,0,1.664-.384c1.472-1.856,3.008-3.712,4.543-5.567a1.848,1.848,0,0,1,1.728-.832Z" transform="translate(-77.947 -5.321)" fill="#fff"/>
    <path id="Path_2659" data-name="Path 2659" d="M351.964,198.683V190.94c0-.512.128-.64.64-.64h11.135c.512,0,.7.192.64.7-.064.768.32,1.792-.192,2.368s-1.472.128-2.24.128H356.06c-.576,0-.768.128-.768.768a12.353,12.353,0,0,1,0,2.176c-.064.64.128.832.768.832h6.847c.64,0,.9.128.832.832a6.684,6.684,0,0,0,0,1.6c.064.64-.192.768-.768.768h-6.783c-.7,0-.9.128-.9.9.064,1.792,0,3.52,0,5.247,0,.576-.128.768-.7.7a10.267,10.267,0,0,0-1.984,0c-.576.064-.7-.128-.7-.7C352.028,203.866,351.964,201.243,351.964,198.683Z" transform="translate(-101.521 -5.29)" fill="#fff"/>
    <path id="Path_2660" data-name="Path 2660" d="M250.227,246.332a6.233,6.233,0,0,1-6.527-6.463,6.53,6.53,0,0,1,13.055.128A6.2,6.2,0,0,1,250.227,246.332Zm3.9-6.463a3.826,3.826,0,0,0-4.032-3.712,3.907,3.907,0,0,0-3.712,4.032,3.875,3.875,0,0,0,7.743,0Z" transform="translate(-63.122 -20.583)" fill="#fff"/>
    <path id="Path_2661" data-name="Path 2661" d="M232.043,241.151l3.776,4.927h-2.88c-.256,0-.384-.32-.512-.448-.96-1.344-1.984-2.688-2.944-4.032-.192-.256-.384-.512-.768-.448s-.256.448-.256.7V245.5c0,.448-.128.576-.576.576-1.984.064-1.984.064-1.984-1.856v-9.855c0-.576.128-.768.7-.768,1.6.064,3.136,0,4.735,0a9.547,9.547,0,0,1,1.344.128,3.639,3.639,0,0,1,.128,7.167A1.568,1.568,0,0,1,232.043,241.151Zm-1.728-5.183h-1.28c-.448,0-.64.128-.64.64v1.984c0,.32.064.448.448.448a15.123,15.123,0,0,0,2.944-.128,1.447,1.447,0,0,0,1.28-1.408,1.366,1.366,0,0,0-1.344-1.408h0A4.8,4.8,0,0,0,230.315,235.968Z" transform="translate(-56.814 -20.585)" fill="#fff"/>
    <path id="Path_2662" data-name="Path 2662" d="M212.579,239.124h2.368c.384,0,.512.128.512.512a6.128,6.128,0,0,1-5.247,6.655c-3.84.32-6.911-2.048-7.231-5.567s1.536-6.335,4.927-7.039a6.536,6.536,0,0,1,5.887,1.344c.32.256.384.512.064.768l-.128.128a4.8,4.8,0,0,1-1.216,1.088c-.448.192-.832-.512-1.28-.7a4.033,4.033,0,0,0-4.863,1.024,4.512,4.512,0,0,0,.064,5.439,4,4,0,0,0,4.863.832,2.877,2.877,0,0,0,1.344-1.664c.128-.384,0-.576-.448-.576h-2.048c-.384,0-.512-.128-.512-.512-.064-1.6-.128-1.6,1.536-1.6Z" transform="translate(-48.66 -20.542)" fill="#fff"/>
    <path id="Path_2663" data-name="Path 2663" d="M267.263,238.041v-3.776c0-.384.128-.512.512-.576,1.984-.064,1.984-.064,1.984,1.92v5.439a2.857,2.857,0,0,0,4.288,2.624,2.494,2.494,0,0,0,1.344-2.56v-6.527c0-.64.128-.832.768-.832,1.728.064,1.728,0,1.728,1.728V241.3c0,3.072-1.856,4.927-4.927,5.055a6.478,6.478,0,0,1-1.92-.128,4.608,4.608,0,0,1-3.84-4.607C267.263,240.409,267.263,239.193,267.263,238.041Z" transform="translate(-71.468 -20.611)" fill="#fff"/>
    <path id="Path_2664" data-name="Path 2664" d="M288.1,239.843V234.4c0-.512.128-.7.7-.7,1.664.064,3.328,0,4.991.064,2.944.128,4.607,2.368,3.84,5.119a3.835,3.835,0,0,1-3.712,2.752,17.946,17.946,0,0,1-2.624,0c-.512,0-.7.128-.64.64.064,1.024,0,2.112,0,3.136,0,.576-.064.768-.7.768-1.792,0-1.792,0-1.792-1.792Zm4.224-.512a10.846,10.846,0,0,0,1.472-.064,1.522,1.522,0,0,0,1.28-1.856,1.563,1.563,0,0,0-1.28-1.28,14.463,14.463,0,0,0-1.664-.064c-1.6,0-1.6,0-1.6,1.536.064,1.664.064,1.664,1.792,1.728Z" transform="translate(-78.89 -20.621)" fill="#fff"/>
    <path id="Path_2665" data-name="Path 2665" d="M313.164,239.838V234.4c0-.512.064-.768.64-.7,1.664.064,3.328,0,4.991,0a3.892,3.892,0,0,1,3.776,5.311,3.742,3.742,0,0,1-3.648,2.5,18.837,18.837,0,0,1-2.688,0c-.448,0-.576.128-.576.576v3.392c0,.384-.064.576-.576.576-1.984.064-1.984.064-1.984-1.92Zm2.5-2.176v1.152c0,.256.064.448.384.448a21.637,21.637,0,0,0,2.88-.064,1.585,1.585,0,0,0,1.216-1.856,1.493,1.493,0,0,0-1.28-1.216,12.33,12.33,0,0,0-1.536-.064C315.66,236,315.66,236,315.66,237.662Z" transform="translate(-87.764 -20.616)" fill="#fff"/>
    <path id="Path_2666" data-name="Path 2666" d="M353.174,246.272c-3.456,0-5.951-1.984-6.591-4.863a6.386,6.386,0,0,1,3.392-7.359,6.871,6.871,0,0,1,7.935,1.6c.32.384.384.7-.128.96a1.339,1.339,0,0,0-.384.256c-1.088.64-1.088.64-2.048-.128a3.988,3.988,0,0,0-4.351-.32,4.106,4.106,0,0,0-1.856,4.224,3.828,3.828,0,0,0,4.288,3.328,3.632,3.632,0,0,0,2.368-1.28c.32-.32.512-.384.832-.064.192.128.32.256.512.384,1.28.9,1.28.9.064,1.92A6.927,6.927,0,0,1,353.174,246.272Z" transform="translate(-99.564 -20.523)" fill="#fff"/>
    <path id="Path_2667" data-name="Path 2667" d="M526.7,198.678V191c0-.512.128-.768.7-.7a12.352,12.352,0,0,0,2.176,0c.384,0,.576.128.576.512v15.806c0,.448-.192.512-.576.512-.7,0-1.472-.064-2.24,0-.512,0-.64-.128-.64-.64Z" transform="translate(-163.471 -5.286)" fill="#fff"/>
    <path id="Path_2668" data-name="Path 2668" d="M331.5,239.907V234.34c0-.448.128-.64.64-.64,1.92,0,1.92-.064,1.92,1.856v7.359c0,.768.256.96.96.9,1.664-.064,3.328,0,4.991,0,.512,0,.7.064.7.64,0,1.728,0,1.728-1.728,1.728H332.4c-.64,0-.768-.192-.768-.768C331.5,243.555,331.5,241.763,331.5,239.907Z" transform="translate(-94.296 -20.621)" fill="#fff"/>
    <path id="Path_2669" data-name="Path 2669" d="M116.645,219.847a1.3,1.3,0,0,1-.774-.3l-.058-.041a86.363,86.363,0,0,1-8.87-6.364c-.406-.314-.817-.635-1.215-.946a45.512,45.512,0,0,0-7.465-5.077,19.069,19.069,0,0,0-8.55-2.29c-.348,0-.7.013-1.045.038h-.012a6.783,6.783,0,0,0-6.436,7.092v.024a3.58,3.58,0,0,0,.029.361c.015.136.031.275.034.413l.04.178a12.22,12.22,0,0,1,.278,1.559l.135,1.346-.978-.935a7.581,7.581,0,0,1-2.265-5.9,7.682,7.682,0,0,1,2.542-5.4,8.782,8.782,0,0,1,5.821-2.11h.007c2.086,0,4.177.141,6.2.277,1.349.091,2.743.185,4.123.236H98.2c.621.046,1.257.068,1.943.068.934,0,1.931-.041,3.138-.13a1.412,1.412,0,0,1,.254-.025.86.86,0,0,1,.876.8c1.163,4.248,3.62,8.073,7.73,12.036a38.747,38.747,0,0,0,5.053,4.106l.706.479-.763.382A1.1,1.1,0,0,1,116.645,219.847ZM89.713,203.829a20.035,20.035,0,0,1,9,2.4,46.265,46.265,0,0,1,7.633,5.184c.4.311.81.633,1.216.947l.011.009q1.655,1.354,3.383,2.628c-3.955-3.93-6.347-7.766-7.51-12.029l-.006-.023-.02,0-.031,0c-1.244.092-2.274.135-3.24.135-.708,0-1.364-.023-2.007-.07-1.391-.052-2.791-.146-4.144-.237-2-.135-4.077-.274-6.128-.274-4.174.062-7.138,2.7-7.376,6.57a6.665,6.665,0,0,0,.782,3.56c-.005-.056-.012-.115-.018-.176A4.447,4.447,0,0,1,81.22,212a7.784,7.784,0,0,1,7.381-8.127C88.969,203.842,89.343,203.829,89.713,203.829Z" transform="translate(-5.096 -9.415)" fill="#fff"/>
    <path id="Path_2670" data-name="Path 2670" d="M103.841,221.348a8.749,8.749,0,0,1,2.514.374l.041.012.03.015.047.014a1.042,1.042,0,0,1,.7.534l.362.724h-.809a11.513,11.513,0,0,0-3.8.674c-2.838,1.081-4.47,3.212-4.989,6.517A12.647,12.647,0,0,0,99.11,237.6l.014.03.01.031c.027.082.056.153.086.229s.069.174.106.283l.026.077v.081a.7.7,0,0,1-.21.482l-.324.324-.351-.295a10.03,10.03,0,0,1-3.3-5.52,9.806,9.806,0,0,1,5.14-11.187A8.338,8.338,0,0,1,103.841,221.348Zm.131,1a7.347,7.347,0,0,0-3.245.69,8.8,8.8,0,0,0-4.587,10.055l0,.008a9.193,9.193,0,0,0,1.354,3.171,13.537,13.537,0,0,1-.545-6.208v-.005a9.981,9.981,0,0,1,1.74-4.443,8.454,8.454,0,0,1,3.888-2.858l.012,0A13.646,13.646,0,0,1,103.972,222.349Z" transform="translate(-10.646 -16.354)" fill="#fff"/>
    <path id="Path_2672" data-name="Path 2672" d="M147,215.715a16.573,16.573,0,0,1-6.659-1.448c-5.56-2.3-9.719-6.486-12.711-12.8a.827.827,0,0,1-.133-.423,2.233,2.233,0,0,1-.186-.85,1.081,1.081,0,0,1,.754-.99,1.286,1.286,0,0,1,.476-.1c.715,0,.992.658,1.157,1.051l.035.083.011.027a23.018,23.018,0,0,0,6.766,9.773,20.468,20.468,0,0,0,10.306,4.62l.048.01.256.064ZM128.5,200.953l.016.034a28.265,28.265,0,0,0,4.325,6.72q-.614-.749-1.164-1.542a24.109,24.109,0,0,1-2.862-5.549l-.032-.076a1.518,1.518,0,0,0-.236-.438.454.454,0,0,0-.228.1,1.639,1.639,0,0,0,.149.568l.032.085v.1Z" transform="translate(-22.32 -8.577)" fill="#fff"/>
    <path id="Path_2673" data-name="Path 2673" d="M147.96,247.007c-.166,0-.332,0-.492-.008s-.314-.008-.467-.008h-1.651l1.374-.916a9.2,9.2,0,0,1,1.434-.736,10.113,10.113,0,0,0,1.023-.5,1.132,1.132,0,0,0,.849-1.777,12.433,12.433,0,0,1,1-8.189l.946.262c-.013.174-.027.34-.04.5-.049.6-.087,1.076-.087,1.511v.019a12.086,12.086,0,0,0,.736,4.669l.011.032a3.24,3.24,0,0,0,.995,1.424,1.259,1.259,0,0,1,.563.942,1.379,1.379,0,0,1-.614,1.029A7.435,7.435,0,0,1,149,246.921,5.3,5.3,0,0,1,147.96,247.007Zm2.918-8.391a11.526,11.526,0,0,0,.13,4.248l0,.025a2.929,2.929,0,0,1,.015,1.736c-.2.43-.61.663-1.348,1.085q-.136.079-.277.152a5.827,5.827,0,0,0,3.46-1.333l.018-.017a1.545,1.545,0,0,0,.263-.262.914.914,0,0,0-.186-.184l-.017-.014a4.262,4.262,0,0,1-1.3-1.88A12.906,12.906,0,0,1,150.878,238.616Z" transform="translate(-29.229 -21.126)" fill="#fff"/>
    <path id="Path_2674" data-name="Path 2674" d="M159.436,183.151a1.393,1.393,0,0,1-.892-.316l-.033-.031-.052-.052a1.5,1.5,0,0,1-.194-2.064l.024-.034.078-.078a6.8,6.8,0,0,1,4.39-2.332,7.352,7.352,0,0,1,7.042,2.661,1.431,1.431,0,0,1,.136.18l.013.02a.6.6,0,0,1,.216.383,1.567,1.567,0,0,1,.015.258v1.337l-.877-1.009a5.514,5.514,0,0,0-4.159-1.9c-.178,0-.357.009-.533.027H164.6a5.281,5.281,0,0,0-3.627,1.872l-.029.032a3.312,3.312,0,0,0-.321.436l-.009.013A1.449,1.449,0,0,1,159.436,183.151Zm-.238-1.073a.4.4,0,0,0,.238.073.448.448,0,0,0,.362-.177,4.005,4.005,0,0,1,.425-.564,6.274,6.274,0,0,1,4.291-2.209c.1-.01.2-.018.306-.023a6.38,6.38,0,0,0-1.9.053l-.029,0a5.8,5.8,0,0,0-3.773,2l-.029.032-.031.031a.512.512,0,0,0,.067.708l.028.026Z" transform="translate(-32.871 -1.2)" fill="#fff"/>
    <path id="Path_2675" data-name="Path 2675" d="M151.5,206.736l-.587-.1a10.46,10.46,0,0,1-3.34-1.134,20.53,20.53,0,0,1-9.353-8.828,3.166,3.166,0,0,1-.229-.44c-.034-.074-.068-.151-.109-.233a1.187,1.187,0,0,1,.451-1.679,1.121,1.121,0,0,1,.571-.158,1.169,1.169,0,0,1,.978.545.705.705,0,0,1,.158.379,20.607,20.607,0,0,0,1.841,3.356,18.194,18.194,0,0,0,9.275,7.1l.344.113Zm-12.6-11.577a.119.119,0,0,0-.062.019l-.009.005c-.116.066-.187.107-.057.366.05.1.09.189.126.269a2.2,2.2,0,0,0,.163.318l.023.039a19.861,19.861,0,0,0,2.6,3.711q-.331-.434-.639-.887a21.518,21.518,0,0,1-1.967-3.607l-.039-.093v-.047A.185.185,0,0,0,138.906,195.159Z" transform="translate(-26.064 -6.847)" fill="#fff"/>
    <path id="Path_2676" data-name="Path 2676" d="M158.878,199.425l-.615-.145a16.763,16.763,0,0,1-6.133-2.836,17.122,17.122,0,0,1-4.542-5,2.425,2.425,0,0,1-.382-.786,1.142,1.142,0,0,1,.541-1.251,1.059,1.059,0,0,1,.605-.19,1.113,1.113,0,0,1,.78.326,1.807,1.807,0,0,1,.35.514,16.24,16.24,0,0,0,9,8.009l.1.038.078.078a.838.838,0,0,1,.21.609Zm-10.526-9.206a.064.064,0,0,0-.041.016l-.036.027-.04.02a.153.153,0,0,0-.059.135,1.558,1.558,0,0,0,.251.484l.013.02a16.332,16.332,0,0,0,2.988,3.664,17.206,17.206,0,0,1-2.84-4.079.883.883,0,0,0-.162-.254A.111.111,0,0,0,148.352,190.219Z" transform="translate(-29.472 -5.105)" fill="#fff"/>
    <path id="Path_2677" data-name="Path 2677" d="M170.838,190.2h.255a.568.568,0,0,1,.5.291l.238.238-.161.322a5.4,5.4,0,0,1-4.491,2.962,7.321,7.321,0,0,1-.97.065,7.549,7.549,0,0,1-3.4-.819l-.024-.013a1.29,1.29,0,0,1-.785-1.725,1.009,1.009,0,0,1,.945-.673,2.2,2.2,0,0,1,.951.3l.024.012.023.015a5.663,5.663,0,0,0,2.7.881l.042,0a4.306,4.306,0,0,0,.629.046,4.176,4.176,0,0,0,3.373-1.7Zm-7.416,1.831a1.838,1.838,0,0,0-.468-.183.415.415,0,0,0-.044.079c-.07.158-.085.192.355.444a6.5,6.5,0,0,0,3.368.693l-.073-.01A6.667,6.667,0,0,1,163.422,192.031Z" transform="translate(-34.268 -5.464)" fill="#fff"/>
    <path id="Path_2678" data-name="Path 2678" d="M161.632,206.4h.028l.028,0a1.3,1.3,0,0,1,1.34,1.295,1.322,1.322,0,0,1-.3.975,1.435,1.435,0,0,1-.892.514,1.2,1.2,0,0,1-.17.012,1.427,1.427,0,0,1-1.356-1.2l-.005-.035V207.8A1.367,1.367,0,0,1,161.632,206.4Zm.029,1.8.028,0a.431.431,0,0,0,.26-.158.324.324,0,0,0,.084-.237l-.005-.035v-.036c0-.136,0-.278-.418-.331a.372.372,0,0,0-.31.395v.084A.426.426,0,0,0,161.661,208.2Z" transform="translate(-34.198 -11.215)" fill="#fff"/>
    <path id="Path_2679" data-name="Path 2679" d="M149.5,229.228a1.39,1.39,0,0,1-1.391-1.2L148.1,228v-.036a1.338,1.338,0,0,1,1.27-1.456l.031,0h.031a1.364,1.364,0,0,1,.064,2.728Zm-.4-1.309a.4.4,0,0,0,.4.309.369.369,0,0,0,.332-.4.362.362,0,0,0-.369-.331C149.2,227.538,149.108,227.613,149.1,227.919Z" transform="translate(-29.805 -18.349)" fill="#fff"/>
    <path id="Path_2680" data-name="Path 2680" d="M153.549,186.689a1.4,1.4,0,0,1,.173.011h.009a1.339,1.339,0,0,1,1.2,1.292,1.225,1.225,0,0,1-.3.937,1.207,1.207,0,0,1-.906.43h-.192a1.35,1.35,0,0,1-1.332-1.332v-.1l.005-.035A1.367,1.367,0,0,1,153.549,186.689Zm.045,1a.369.369,0,0,0-.394.314v.022a.35.35,0,0,0,.332.332h.192a.249.249,0,0,0,.209-.261l-.005-.035v-.036A.348.348,0,0,0,153.594,187.692Z" transform="translate(-31.281 -4.281)" fill="#fff"/>
    <path id="Path_2681" data-name="Path 2681" d="M160.9,198.364h-.064a1.332,1.332,0,1,1,1.332-1.332A1.287,1.287,0,0,1,160.9,198.364Zm-.064-1.664a.332.332,0,0,0,0,.664h.064a.3.3,0,0,0,.268-.332A.35.35,0,0,0,160.832,196.7Z" transform="translate(-33.91 -7.418)" fill="#fff"/>
    <path id="Path_2682" data-name="Path 2682" d="M157.31,227.787a1.219,1.219,0,0,1,.857.345,1.2,1.2,0,0,1,.361.867v.1a1.258,1.258,0,0,1-.27.936,1.342,1.342,0,0,1-.864.487l-.035.005h-.227a1.35,1.35,0,0,1-1.332-1.332v-.207l.072-.072a1.236,1.236,0,0,1,1.26-1.117h.033A1.307,1.307,0,0,1,157.31,227.787Zm-.028,1.736a.339.339,0,0,0,.2-.116.263.263,0,0,0,.055-.209l-.005-.035V229a.206.206,0,0,0-.059-.152.237.237,0,0,0-.2-.057l-.035.005h-.1a.242.242,0,0,0-.268.268.651.651,0,0,1-.04.242.352.352,0,0,0,.308.218Z" transform="translate(-32.578 -18.806)" fill="#fff"/>
    <path id="Path_2683" data-name="Path 2683" d="M135.168,219.3h.159l.031,0a1.524,1.524,0,0,1,1.025.564,1.194,1.194,0,0,1,.24.894,1.326,1.326,0,0,1-1.282,1.273,1.38,1.38,0,0,1-.14-.007,1.285,1.285,0,0,1-1.3-1.268v-.192A1.24,1.24,0,0,1,135.168,219.3Zm.093,1h-.093a.242.242,0,0,0-.268.268v.192a.3.3,0,0,0,.332.268h.031l.031,0,.048,0c.217,0,.275-.28.29-.4v-.009a.189.189,0,0,0-.045-.15A.519.519,0,0,0,135.261,220.3Z" transform="translate(-24.692 -15.794)" fill="#fff"/>
    <path id="Path_2684" data-name="Path 2684" d="M159.131,186.689a1.315,1.315,0,0,1,.9.371,1.271,1.271,0,0,1,.4.868,1.286,1.286,0,0,1-.317.983,1.266,1.266,0,0,1-.95.449h-.1a1.188,1.188,0,0,1-.128.007,1.271,1.271,0,0,1-1.234-1.291h0V188l0-.031A1.3,1.3,0,0,1,159,186.7,1.208,1.208,0,0,1,159.131,186.689Zm.029,1.671a.273.273,0,0,0,.195-.1.29.29,0,0,0,.078-.221l-.005-.035v-.036a.268.268,0,0,0-.09-.183.3.3,0,0,0-.235-.09l-.035.005h-.036c-.13,0-.277,0-.331.36.01.174.111.311.234.311l.027,0,.035-.005Z" transform="translate(-33.262 -4.281)" fill="#fff"/>
    <path id="Path_2685" data-name="Path 2685" d="M158.318,219.772a1.219,1.219,0,0,1-.857-.345,1.2,1.2,0,0,1-.361-.867v-.128a1.35,1.35,0,0,1,1.332-1.332,1.367,1.367,0,0,1,1.332,1.4,1.224,1.224,0,0,1-1.2,1.268h-.1A1.307,1.307,0,0,1,158.318,219.772Zm.114-1.672a.35.35,0,0,0-.332.332v.128a.206.206,0,0,0,.059.152.237.237,0,0,0,.2.057l.035-.005h.164c.118,0,.2-.113.2-.268A.367.367,0,0,0,158.432,218.1Z" transform="translate(-33.046 -15.013)" fill="#fff"/>
    <path id="Path_2686" data-name="Path 2686" d="M142.088,223.8h.041l.041.007a1.426,1.426,0,0,1,.769,2.244,1.208,1.208,0,0,1-.915.413h-.1a1.286,1.286,0,0,1-1.422-1.133l-.005-.035v-.263l.005-.035A1.427,1.427,0,0,1,142.088,223.8Zm-.064,1.664a.2.2,0,0,0,.16-.068.238.238,0,0,0,.049-.193l-.01-.071.01-.071a.23.23,0,0,0-.193-.261c-.454.012-.519.187-.539.305v.111a.294.294,0,0,0,.325.251l.035-.005Z" transform="translate(-27.069 -17.391)" fill="#fff"/>
    <path id="Path_2687" data-name="Path 2687" d="M150.264,214.6h.228a1.287,1.287,0,0,1,1.332,1.268v.081a1.352,1.352,0,0,1-1.332,1.378,1.32,1.32,0,0,1-1.4-1.3,1.292,1.292,0,0,1,1.133-1.426Zm.56,1.268h0a.3.3,0,0,0-.332-.268h-.149a.293.293,0,0,0-.252.325l.005.035V216c0,.289.248.332.4.332a.369.369,0,0,0,.332-.4C150.823,215.908,150.823,215.887,150.824,215.868Z" transform="translate(-30.161 -14.126)" fill="#fff"/>
    <path id="Path_2688" data-name="Path 2688" d="M129.993,217.03a1.357,1.357,0,0,1-1.293-1.2l-.005-.035v-.068a1.293,1.293,0,0,1,1.133-1.422l.035-.005H130a1.286,1.286,0,0,1,1.422,1.133l.005.035v.228a1.351,1.351,0,0,1-1.3,1.331A1.2,1.2,0,0,1,129.993,217.03Zm-.3-1.317c.036.172.17.317.3.317l.027,0,.035-.005h.036a.35.35,0,0,0,.332-.332v-.149a.293.293,0,0,0-.325-.251l-.035.005h-.121a.293.293,0,0,0-.252.325l.005.035Z" transform="translate(-22.815 -14.015)" fill="#fff"/>
    <path id="Path_2689" data-name="Path 2689" d="M148.83,198.289a1.357,1.357,0,0,1,1.293,1.2l.005.035v.036a1.38,1.38,0,0,1-1.27,1.456l-.031,0H148.8a1.365,1.365,0,0,1-.1-2.727A1.194,1.194,0,0,1,148.83,198.289Zm.3,1.314c-.037-.171-.17-.314-.3-.314l-.027,0-.035.005h-.036a.364.364,0,0,0,.037.727A.375.375,0,0,0,149.127,199.6Z" transform="translate(-29.553 -8.337)" fill="#fff"/>
    <path id="Path_2690" data-name="Path 2690" d="M138.227,206.959a1.287,1.287,0,0,1-1.332-1.268v-.033a1.237,1.237,0,0,1,.289-.95,1.208,1.208,0,0,1,.915-.413h.1a1.286,1.286,0,0,1,1.422,1.133l.005.035v.227a1.2,1.2,0,0,1-.41.958A1.488,1.488,0,0,1,138.227,206.959ZM138.1,205.3a.2.2,0,0,0-.16.068.238.238,0,0,0-.049.193l.005.035v.1a.3.3,0,0,0,.332.268.541.541,0,0,0,.342-.074.254.254,0,0,0,.054-.193v-.149a.294.294,0,0,0-.325-.251l-.035.005Z" transform="translate(-25.768 -10.466)" fill="#fff"/>
    <path id="Path_2691" data-name="Path 2691" d="M134.755,200.523h-.128a1.287,1.287,0,0,1-1.332-1.268v-.1a1.237,1.237,0,0,1,.289-.95,1.208,1.208,0,0,1,.915-.413h.1a1.286,1.286,0,0,1,1.422,1.133l.005.035v.228A1.287,1.287,0,0,1,134.755,200.523ZM134.5,198.8a.2.2,0,0,0-.16.068.238.238,0,0,0-.049.193l.005.035v.164a.3.3,0,0,0,.332.268h.128a.3.3,0,0,0,.268-.332v-.149a.294.294,0,0,0-.325-.251l-.035.005Z" transform="translate(-24.471 -8.159)" fill="#fff"/>
    <path id="Path_2692" data-name="Path 2692" d="M143.432,210.2h.225l.06.015a1.514,1.514,0,0,1,1.206,1.31l.005.035v.036a1.351,1.351,0,0,1-1.3,1.331,1.286,1.286,0,0,1-1.426-1.133l-.005-.035v-.228a1.338,1.338,0,0,1,1.2-1.327Zm.1,1h-.02a.338.338,0,0,0-.309.332v.149a.294.294,0,0,0,.325.251l.035-.005h.036a.352.352,0,0,0,.33-.3A.5.5,0,0,0,143.529,211.2Z" transform="translate(-27.681 -12.564)" fill="#fff"/>
    <path id="Path_2693" data-name="Path 2693" d="M122.764,201.2h.036a1.323,1.323,0,0,1,1.456,1.2,1.3,1.3,0,0,1-1.053,1.455l-.041.007h-.2a1.3,1.3,0,0,1-.145.008,1.2,1.2,0,0,1-1.218-1.212v-.093a1.153,1.153,0,0,1,.224-.825,1.369,1.369,0,0,1,.91-.537Zm.3,1.664a.3.3,0,0,0,.2-.325v-.009c-.023-.186-.068-.32-.423-.329a.363.363,0,0,0-.214.133.167.167,0,0,0-.037.117l.007.041v.169a.207.207,0,0,0,.218.212.307.307,0,0,0,.043,0l.035-.005Z" transform="translate(-20.259 -9.37)" fill="#fff"/>
    <path id="Path_2694" data-name="Path 2694" d="M144.492,194.928h-.1A1.459,1.459,0,0,1,143,193.667a1.2,1.2,0,0,1,.365-1.016,1.607,1.607,0,0,1,.891-.445l.035-.005h.036a1.459,1.459,0,0,1,1.391,1.261l.005.035v.1a1.338,1.338,0,0,1-1.2,1.327Zm-.131-1.726a.607.607,0,0,0-.287.156.236.236,0,0,0-.083.168.463.463,0,0,0,.4.4h.023a.338.338,0,0,0,.309-.332v-.022A.472.472,0,0,0,144.361,193.2Z" transform="translate(-27.965 -6.176)" fill="#fff"/>
    <path id="Path_2695" data-name="Path 2695" d="M156.29,191.689a1.255,1.255,0,0,1,1.234,1.24,1.341,1.341,0,0,1-1.2,1.426l-.035.005h-.069a1.205,1.205,0,0,1-.13.007,1.322,1.322,0,0,1-1.3-1.239,1.286,1.286,0,0,1,.317-.983,1.266,1.266,0,0,1,.95-.449h.1A1.194,1.194,0,0,1,156.29,191.689Zm-.076,1.671c.171-.036.337-.176.315-.325l-.005-.035v-.036a.267.267,0,0,0-.234-.275l-.027,0-.035.005h-.164a.273.273,0,0,0-.195.1.29.29,0,0,0-.078.221l.005.035v.036a.318.318,0,0,0,.325.273l.035-.005Z" transform="translate(-32.214 -5.994)" fill="#fff"/>
    <path id="Path_2696" data-name="Path 2696" d="M166.932,197.6h0a1.367,1.367,0,0,1,1.4,1.332,1.292,1.292,0,0,1-1.332,1.4A1.353,1.353,0,0,1,165.6,199,1.32,1.32,0,0,1,166.932,197.6Zm.064,1.728c.168,0,.332-.031.332-.4a.367.367,0,0,0-.4-.332c-.289,0-.332.248-.332.4A.369.369,0,0,0,167,199.328Z" transform="translate(-35.603 -8.092)" fill="#fff"/>
    <path id="Path_2697" data-name="Path 2697" d="M125.615,210.754l-.087-.087a1.293,1.293,0,0,1-1.121-1.061l-.007-.041V209.4A1.409,1.409,0,0,1,125.67,208l.031,0h.031a1.409,1.409,0,0,1,1.392,1.27l0,.031v.031a1.409,1.409,0,0,1-1.27,1.392Zm-.215-1.284a.278.278,0,0,0,.25.2l.254-.042.037.037a.37.37,0,0,0,.187-.3.364.364,0,1,0-.727.034Z" transform="translate(-21.271 -11.783)" fill="#fff"/>
    <path id="Path_2698" data-name="Path 2698" d="M155.191,203.187a1.187,1.187,0,0,1,.81.331,1.141,1.141,0,0,1,.358.817v.064a1.3,1.3,0,0,1-1.233,1.459,1.206,1.206,0,0,1-.134.007,1.322,1.322,0,0,1-1.3-1.239,1.286,1.286,0,0,1,.317-.983,1.266,1.266,0,0,1,.95-.449h.093A1.108,1.108,0,0,1,155.191,203.187Zm-.1,1.672c.073,0,.268,0,.268-.46v-.064a.142.142,0,0,0-.049-.094.172.172,0,0,0-.136-.053l-.041.007h-.169a.273.273,0,0,0-.195.1.29.29,0,0,0-.078.221l.005.035v.036a.318.318,0,0,0,.325.273l.035-.005Z" transform="translate(-31.818 -10.075)" fill="#fff"/>
    <path id="Path_2699" data-name="Path 2699" d="M172.963,199.2a1.286,1.286,0,0,1-1.267-1.228,1.2,1.2,0,0,1,.259-.886,1.307,1.307,0,0,1,.8-.479l.041-.007h.134a1.1,1.1,0,0,1,.134-.008,1.288,1.288,0,0,1,1.228,1.141l.035.247-.1.1A1.288,1.288,0,0,1,172.963,199.2Zm-.074-1.6a.319.319,0,0,0-.149.106.2.2,0,0,0-.051.144l.007.041v.041a.268.268,0,1,0,.536,0,.7.7,0,0,1,.024-.194.257.257,0,0,0-.194-.147h-.016L173,197.6Z" transform="translate(-37.764 -7.733)" fill="#fff"/>
    <path id="Path_2700" data-name="Path 2700" d="M153.826,182H154a1.161,1.161,0,0,1,1.2,1.14v.1l-.005.035a1.15,1.15,0,0,1-1.153,1.133,1,1,0,0,1-.145.01,1.149,1.149,0,0,1-1.1-1l-.007-.041V183.2a1.191,1.191,0,0,1,.978-1.194Zm.381,1.167v-.027c0-.136-.183-.14-.2-.14h-.066a.2.2,0,0,0-.137.2v.077c.026.1.087.137.105.137l.049-.01H154C154.122,183.408,154.17,183.408,154.208,183.167Z" transform="translate(-31.497 -2.593)" fill="#fff"/>
    <path id="Path_2701" data-name="Path 2701" d="M177.006,193.2h.192a1.1,1.1,0,0,1,1.111.868.6.6,0,0,1,.093.336,1.191,1.191,0,0,1-.978,1.194l-.049.01H177.3a1.156,1.156,0,0,1-1.3-.93l-.007-.041v-.192a1.137,1.137,0,0,1,.254-.867A.987.987,0,0,1,177.006,193.2Zm.332,1.367v-.227c0-.107-.033-.14-.14-.14h-.167a.165.165,0,0,0-.047.106l.01.049v.183a.159.159,0,0,0,.144.082l.026,0,.049-.01h.052A.213.213,0,0,0,177.338,194.567Z" transform="translate(-39.291 -6.531)" fill="#fff"/>
    <path id="Path_2702" data-name="Path 2702" d="M156.948,178.3h.064a1.044,1.044,0,1,1,0,2.088A1,1,0,0,1,156,179.376v-.064A1,1,0,0,1,156.948,178.3Z" transform="translate(-32.65 -1.261)" fill="#fff"/>
    <path id="Path_2703" data-name="Path 2703" d="M176.264,201.1h.048a.893.893,0,0,1,.947.891.865.865,0,0,1-.184.7,1.085,1.085,0,0,1-.578.352l-.06.015h-.19a.93.93,0,0,1-.948-.884v-.064a1,1,0,0,1,.964-1.011Z" transform="translate(-39.048 -9.336)" fill="#fff"/>
    <path id="Path_2704" data-name="Path 2704" d="M161.22,176.534a.513.513,0,0,1,.242.06.936.936,0,0,1,.761.93v.064a.938.938,0,0,1-.948.948h-.064a.982.982,0,0,1-1-.763l-.015-.06v-.126a.936.936,0,0,1,.657-.9A.494.494,0,0,1,161.22,176.534Z" transform="translate(-34.162 -0.625)" fill="#fff"/>
    <path id="Path_2705" data-name="Path 2705" d="M174,203.388l.11.022a.962.962,0,0,1,.849,1.117.879.879,0,0,1-.947.833h-.064a.93.93,0,0,1-.948-.884v-.126l.015-.06a1.2,1.2,0,0,1,.876-.876Z" transform="translate(-38.232 -10.153)" fill="#fff"/>
    <path id="Path_2706" data-name="Path 2706" d="M157.7,211.771l3.108.717-.112.987a7.32,7.32,0,0,1-2.675-.481l-.321-.123Z" transform="translate(-33.262 -13.172)" fill="#fff"/>
    <path id="Path_2707" data-name="Path 2707" d="M176.192,190.771l-.417-.417a.809.809,0,0,1-.153-.217l-.245-.245.189-.332a9.171,9.171,0,0,0,.67-1.335l.966.225a3.713,3.713,0,0,1-.667,1.841Z" transform="translate(-39.12 -4.717)" fill="#fff"/>
    <path id="Path_2708" data-name="Path 2708" d="M165.374,204.409a3.674,3.674,0,0,1-1.132-.179l-.342-.114v-1.279l1.981.566-.067.976A3.133,3.133,0,0,1,165.374,204.409Z" transform="translate(-35 -10.012)" fill="#fff"/>
    <path id="Path_2709" data-name="Path 2709" d="M139.229,230.81l-1.176-.588-.12-.058a1.445,1.445,0,0,1-.649-.5l-.394-.59.688-.172a1.008,1.008,0,0,1,.244-.031.976.976,0,0,1,.918.714Z" transform="translate(-25.88 -19.199)" fill="#fff"/>
  </g>
</svg>
