<svg xmlns="http://www.w3.org/2000/svg" width="20.313" height="25" viewBox="0 0 20.313 25">
  <g id="flag-line" transform="translate(-26.65 -10.66)">
    <path id="Path_1" data-name="Path 1" d="M27.431,35.66a.781.781,0,0,1-.781-.781V11.441a.781.781,0,1,1,1.563,0V34.879A.781.781,0,0,1,27.431,35.66Z" fill="#fff"/>
    <path id="Path_2" data-name="Path 2" d="M64.806,12.261a.781.781,0,0,0-.781,0,11.641,11.641,0,0,1-4.789.906A10.242,10.242,0,0,1,55.189,12a9.984,9.984,0,0,0-3.906-1.133,8.484,8.484,0,0,0-3.312.633v1.742a6.875,6.875,0,0,1,3.32-.844,8.766,8.766,0,0,1,3.281,1,11.594,11.594,0,0,0,4.688,1.3,14.648,14.648,0,0,0,4.336-.641V24.081a12.625,12.625,0,0,1-4.359.727,10.242,10.242,0,0,1-4.047-1.164,9.984,9.984,0,0,0-3.906-1.133,8.484,8.484,0,0,0-3.312.664V24.9a6.875,6.875,0,0,1,3.32-.844,8.766,8.766,0,0,1,3.281,1,11.594,11.594,0,0,0,4.688,1.3,13.117,13.117,0,0,0,5.469-1.07.781.781,0,0,0,.43-.7V12.925A.781.781,0,0,0,64.806,12.261Z" transform="translate(-18.195 -0.179)" fill="#fff"/>
  </g>
</svg>
