<svg xmlns="http://www.w3.org/2000/svg" width="53" height="57.835" viewBox="0 0 53 57.835">
  <g id="Group_169" data-name="Group 169" transform="translate(-881.5 -19.807)">
    <path id="Path_90" data-name="Path 90" d="M164.491,134.89l-18.667-6.2v-7.478l18.667,6.2Z" transform="translate(769.508 -64.49)" fill="none" stroke="#f4f0e9" stroke-width="1" fill-rule="evenodd"/>
    <path id="Path_91" data-name="Path 91" d="M164.491,13.673l-18.667-6.2V0l18.667,6.2Z" transform="translate(769.508 20.5)" fill="none" stroke="#f4f0e9" stroke-width="1" fill-rule="evenodd"/>
    <path id="Path_92" data-name="Path 92" d="M0,135.243l32.9-6.549v-7.478L0,127.765Z" transform="translate(882 -64.489)" fill="none" stroke="#f4f0e9" stroke-width="1" fill-rule="evenodd"/>
    <path id="Path_93" data-name="Path 93" d="M82.733,162.7l32.9-6.549v-7.477l-32.9,6.549Z" transform="translate(818.365 -85.752)" fill="none" stroke="#f4f0e9" stroke-width="1" fill-rule="evenodd"/>
    <path id="Path_94" data-name="Path 94" d="M18.667,163.915,0,157.72v-7.478l18.667,6.2Z" transform="translate(882 -86.965)" fill="none" stroke="#f4f0e9" stroke-width="1" fill-rule="evenodd"/>
    <path id="Path_95" data-name="Path 95" d="M115.635,74.812l-32.9-10.851V56.484l32.9,10.851Z" transform="translate(818.365 -18.001)" fill="none" stroke="#f4f0e9" stroke-width="1" fill-rule="evenodd"/>
    <path id="Path_96" data-name="Path 96" d="M0,67.715l18.667-3.754V56.483L0,60.238Z" transform="translate(882 -19.091)" fill="none" stroke="#f4f0e9" stroke-width="1" fill-rule="evenodd"/>
    <path id="Path_97" data-name="Path 97" d="M32.9,91.451,0,80.6V73.122L32.9,83.974Z" transform="translate(882 -29.343)" fill="none" stroke="#f4f0e9" stroke-width="1" fill-rule="evenodd"/>
    <path id="Path_98" data-name="Path 98" d="M0,14.026,32.9,7.477V0L0,6.548Z" transform="translate(882 20.5)" fill="none" stroke="#f4f0e9" stroke-width="1" fill-rule="evenodd"/>
    <path id="Path_99" data-name="Path 99" d="M82.733,41.485l32.9-6.549V27.458l-32.9,6.549Z" transform="translate(818.365 -0.763)" fill="none" stroke="#f4f0e9" stroke-width="1" fill-rule="evenodd"/>
    <path id="Path_100" data-name="Path 100" d="M18.667,42.7,0,36.5V29.025l18.667,6.2Z" transform="translate(882 -1.977)" fill="none" stroke="#f4f0e9" stroke-width="1" fill-rule="evenodd"/>
    <path id="Path_101" data-name="Path 101" d="M145.825,115.809l18.667-3.754v-7.478l-18.667,3.754Z" transform="translate(769.508 -52.802)" fill="none" stroke="#f4f0e9" stroke-width="1" fill-rule="evenodd"/>
  </g>
</svg>
