<svg xmlns="http://www.w3.org/2000/svg" width="132.92" height="117.386" viewBox="0 0 132.92 117.386">
  <g id="Component_6_13" data-name="Component 6 – 13" transform="translate(0.5 0.693)">
    <g id="Group_416" data-name="Group 416" transform="translate(0.001 0)">
      <path id="Path_53" data-name="Path 53" d="M193.576,156.194l-47.752-15.848V121.217l47.752,15.848Z" transform="translate(-61.658 -56.947)" fill="none" stroke="#f4f0e9" stroke-width="1" fill-rule="evenodd"/>
      <path id="Path_54" data-name="Path 54" d="M193.576,34.977,145.824,19.129V0l47.752,15.848Z" transform="translate(-61.658)" fill="none" stroke="#f4f0e9" stroke-width="1" fill-rule="evenodd"/>
      <path id="Path_55" data-name="Path 55" d="M0,157.1l84.167-16.753V121.217L0,137.969Z" transform="translate(0 -56.946)" fill="none" stroke="#f4f0e9" stroke-width="1" fill-rule="evenodd"/>
      <path id="Path_56" data-name="Path 56" d="M82.733,184.557,166.9,167.8V148.676L82.733,165.428Z" transform="translate(-34.98 -68.557)" fill="none" stroke="#f4f0e9" stroke-width="1" fill-rule="evenodd"/>
      <path id="Path_57" data-name="Path 57" d="M47.752,185.219,0,169.371V150.242L47.752,166.09Z" transform="translate(0 -69.219)" fill="none" stroke="#f4f0e9" stroke-width="1" fill-rule="evenodd"/>
      <path id="Path_58" data-name="Path 58" d="M166.9,103.371,82.733,75.612V56.484L166.9,84.242Z" transform="translate(-34.98 -23.882)" fill="none" stroke="#f4f0e9" stroke-width="1" fill-rule="evenodd"/>
      <path id="Path_59" data-name="Path 59" d="M0,85.216l47.752-9.6V56.483L0,66.087Z" transform="translate(0 -23.882)" fill="none" stroke="#f4f0e9" stroke-width="1" fill-rule="evenodd"/>
      <path id="Path_60" data-name="Path 60" d="M84.167,120.01,0,92.251V73.122l84.167,27.759Z" transform="translate(0 -30.917)" fill="none" stroke="#f4f0e9" stroke-width="1" fill-rule="evenodd"/>
      <path id="Path_61" data-name="Path 61" d="M0,35.881,84.167,19.128V0L0,16.752Z" transform="translate(0 0.001)" fill="none" stroke="#f4f0e9" stroke-width="1" fill-rule="evenodd"/>
      <path id="Path_62" data-name="Path 62" d="M82.733,63.34,166.9,46.587V27.458L82.733,44.211Z" transform="translate(-34.98 -11.609)" fill="none" stroke="#f4f0e9" stroke-width="1" fill-rule="evenodd"/>
      <path id="Path_63" data-name="Path 63" d="M47.752,64,0,48.154V29.025L47.752,44.873Z" transform="translate(0 -12.272)" fill="none" stroke="#f4f0e9" stroke-width="1" fill-rule="evenodd"/>
      <path id="Path_64" data-name="Path 64" d="M145.825,133.31l47.752-9.6V104.577l-47.752,9.6Z" transform="translate(-61.658 -44.217)" fill="none" stroke="#f4f0e9" stroke-width="1" fill-rule="evenodd"/>
    </g>
  </g>
</svg>
